<?xml version="1.0" encoding="utf-8"?>
<!-- Generator: Adobe Illustrator 27.5.0, SVG Export Plug-In . SVG Version: 6.00 Build 0)  -->
<svg version="1.1" xmlns="http://www.w3.org/2000/svg" xmlns:xlink="http://www.w3.org/1999/xlink" x="0px" y="0px"
	 viewBox="0 0 2200 2200" style="enable-background:new 0 0 2200 2200;" xml:space="preserve">
<g id="background">
	<rect y="0" style="fill:#FFFFFF;" width="2200" height="2200"/>
</g>
<g id="Objects">
	<g>
		<path style="fill:#EDF0F2;" d="M1778.464,503.957c33.339,1.868,59.175,29.848,58.312,63.228
			c-3.544,137.065-15.995,471.7-55.946,680.085c-51.21,267.107-554.306,710.392-680.83,710.392s-629.62-443.285-680.83-710.392
			c-39.952-208.384-52.402-543.02-55.946-680.085c-0.863-33.38,24.973-61.359,58.312-63.228
			c321.42-18.012,552.172-177.218,639.715-247.925c22.603-18.257,54.896-18.257,77.499,0
			C1226.292,326.739,1457.044,485.945,1778.464,503.957z"/>
		<path style="fill:#95CBE8;" d="M1100,1834.99c-14.083-5.584-47.918-21.81-108.287-66.084
			c-61.704-45.253-130.905-105.331-194.855-169.166c-69.836-69.71-130.815-141.072-176.346-206.371
			c-46.098-66.112-75.99-126.022-84.172-168.694c-33.928-176.963-47.163-454.914-52.054-606.331
			c135.147-13.499,267.848-50.398,395.177-109.952c93.965-43.949,168.235-92.44,220.536-131.471
			c52.301,39.031,126.571,87.522,220.536,131.471c127.329,59.554,260.029,96.454,395.176,109.952
			c-4.89,151.418-18.126,429.368-52.053,606.331c-8.182,42.672-38.074,102.582-84.172,168.694
			c-45.531,65.299-106.51,136.661-176.346,206.371c-63.95,63.835-133.151,123.913-194.855,169.166
			C1147.918,1813.18,1114.083,1829.405,1100,1834.99z"/>
		<path style="fill:#1E2735;" d="M1832.23,512.184c-7.534-8.161-16.426-14.661-26.209-19.272
			c-9.783-4.612-20.458-7.344-31.551-7.961c-135.171-7.582-268.283-41.619-395.645-101.191
			c-103.449-48.385-179.713-102.605-225.478-139.565c-15.05-12.155-33.999-18.855-53.347-18.855s-38.298,6.699-53.347,18.855
			c-45.766,36.96-122.029,91.18-225.478,139.565C693.813,443.331,560.701,477.368,425.53,484.95
			c-22.185,1.243-42.701,10.912-57.76,27.233c-15.069,16.34-23.058,37.577-22.479,59.79
			c3.473,134.469,15.885,469.763,55.919,678.607c12.554,65.484,50.681,143.284,113.308,231.228
			c53.442,75.049,123.699,155.658,203.16,233.079c72.695,70.845,149.908,135.712,217.422,182.664
			c73.568,51.165,129.051,77.108,164.9,77.108c35.85,0,91.332-25.943,164.9-77.108c67.514-46.952,144.727-111.819,217.422-182.664
			c79.461-77.421,149.718-158.03,203.16-233.079c62.628-87.944,100.754-165.745,113.308-231.228
			c40.034-208.844,52.446-544.138,55.919-678.607C1855.288,549.76,1847.298,528.524,1832.23,512.184z M1821.517,571.12
			c-3.464,133.643-15.771,466.774-55.349,673.208c-11.643,60.768-47.891,134.184-107.729,218.209
			c-52.323,73.464-121.232,152.508-199.298,228.572c-146.453,142.715-300.849,250.339-359.14,250.339
			s-212.687-107.625-359.14-250.339c-78.066-76.064-146.975-155.108-199.298-228.572c-59.838-84.025-96.086-157.442-107.729-218.209
			c-39.579-206.434-51.886-539.565-55.349-673.208c-0.721-28.154,20.753-51.44,48.906-53.015
			c139.413-7.809,276.633-42.89,407.848-104.265c106.476-49.798,185.083-105.689,232.282-143.806
			c9.157-7.401,20.696-11.482,32.481-11.482s23.324,4.08,32.481,11.482c47.198,38.117,125.805,94.008,232.282,143.806
			c131.214,61.375,268.435,96.456,407.848,104.265C1800.764,519.68,1822.238,542.966,1821.517,571.12z"/>
		<g>
			<path style="fill:#FFFFFF;" d="M1443.092,812.278c-105.1,112.805-239.484,313.868-342.26,574.959
				c-13.38,34.018-46.629,56.023-83.171,54.913c-0.332-0.01-0.655-0.028-0.987-0.028c-29.15-0.882-55.852-16.435-71.149-41.287
				c-57.428-93.381-85.411-166.267-182.322-280.552c-41.533-48.992,11.311-95.203,68.017-89.738
				c35.631,3.435,69.744,21.474,93.002,52.541c33.325,44.494,67.761,96.56,87.119,143.484c0,0,115.054-225.744,301.457-427.727
				c29.226-31.674,71.3-45.547,111.667-39.74C1449.829,762.755,1460.562,793.528,1443.092,812.278z"/>
		</g>
	</g>
</g>
</svg>
